<svg xmlns="http://www.w3.org/2000/svg" xmlns:xlink="http://www.w3.org/1999/xlink" width="1366" zoomAndPan="magnify" viewBox="0 0 1024.5 576" height="768" preserveAspectRatio="xMidYMid meet" version="1.2"><defs><clipPath id="d3b2d32659"><path d="M 0 182 L 1024 182 L 1024 384.929688 L 0 384.929688 Z M 0 182 "/></clipPath><clipPath id="b4ceea53a5"><path d="M 0.300781 380.355469 C 8.695312 376.230469 10.945312 373.984375 13.117188 372.933594 C 14.84375 372.109375 15.96875 372.257812 18.214844 371.359375 C 23.164062 369.410156 34.035156 364.164062 41.304688 359.816406 C 48.277344 355.542969 57.195312 349.019531 61.019531 345.421875 C 62.820312 343.699219 63.121094 342.5 64.542969 341.074219 C 66.269531 339.425781 68.515625 338.300781 70.765625 336.277344 C 73.839844 333.578125 77.738281 329.453125 81.109375 326.007812 C 84.410156 322.484375 87.480469 319.335938 90.855469 315.4375 C 94.753906 310.863281 98.953125 304.492188 103 299.996094 C 106.597656 296.097656 111.097656 291.671875 113.792969 289.722656 C 115.21875 288.75 115.894531 288.898438 117.242188 287.925781 C 119.792969 286.125 122.640625 282.152344 127.0625 278.78125 C 134.632812 273.082031 149.777344 261.613281 159.972656 258.613281 C 167.769531 256.367188 174.515625 256.367188 181.9375 258.238281 C 190.78125 260.488281 202.625 269.335938 208.921875 273.382812 C 212.445312 275.78125 214.320312 278.03125 216.871094 279.453125 C 218.96875 280.652344 220.242188 281.328125 223.015625 281.851562 C 228.261719 282.828125 242.730469 282.527344 246.328125 281.929688 C 247.453125 281.703125 247.453125 281.703125 248.429688 281.101562 C 251.800781 279.230469 264.394531 267.683594 268.519531 265.4375 C 270.09375 264.535156 270.394531 264.910156 272.117188 264.011719 C 276.914062 261.6875 292.355469 252.09375 298.128906 247.746094 C 301.351562 245.269531 302.175781 243.773438 305.101562 241.449219 C 309.300781 238 316.644531 232.601562 321.292969 229.527344 C 324.589844 227.355469 327.214844 226.304688 330.0625 224.28125 C 332.988281 222.183594 335.535156 219.933594 338.609375 217.085938 C 342.65625 213.410156 347.980469 207.339844 351.878906 203.667969 C 354.875 200.890625 357.574219 198.269531 359.972656 196.769531 C 361.546875 195.796875 362.746094 194.894531 364.320312 194.820312 C 365.972656 194.820312 368.070312 195.796875 369.792969 196.769531 C 371.59375 197.820312 372.644531 199.019531 374.667969 201.042969 C 378.714844 205.089844 387.035156 214.085938 391.457031 220.007812 C 394.90625 224.730469 396.929688 228.628906 399.703125 233.5 C 402.929688 239.125 407.574219 247.519531 409.375 251.941406 C 410.273438 254.339844 410.199219 255.617188 411.023438 257.640625 C 412 260.039062 413.871094 263.1875 415.296875 265.359375 C 416.496094 267.160156 417.921875 268.285156 418.894531 269.859375 C 419.796875 271.28125 419.796875 272.632812 420.917969 274.507812 C 422.867188 277.878906 427.667969 283.726562 431.191406 287.699219 C 434.339844 291.296875 436.585938 295.644531 440.785156 297.445312 C 445.957031 299.621094 454.953125 299.019531 460.875 297.59375 C 466.121094 296.320312 470.171875 293.621094 474.742188 290.398438 C 480.214844 286.574219 486.8125 280.355469 491.011719 275.480469 C 494.308594 271.65625 495.808594 267.535156 498.582031 264.160156 C 501.28125 261.011719 504.355469 258.238281 507.277344 255.765625 C 509.902344 253.59375 513.273438 251.269531 515.296875 249.992188 C 516.496094 249.320312 517.246094 248.792969 518.222656 248.496094 C 519.121094 248.269531 519.945312 248.34375 520.921875 248.34375 C 522.195312 248.269531 523.84375 247.96875 525.269531 248.269531 C 526.917969 248.644531 528.34375 249.394531 530.292969 250.441406 C 533.363281 252.167969 537.113281 255.691406 541.6875 258.238281 C 547.683594 261.613281 558.550781 264.835938 563.574219 268.132812 C 566.722656 270.160156 568.597656 272.933594 570.398438 274.132812 C 571.371094 274.804688 571.894531 275.179688 572.945312 275.40625 C 574.445312 275.78125 576.542969 275.855469 578.792969 275.632812 C 581.941406 275.179688 586.4375 273.90625 590.035156 272.183594 C 593.710938 270.457031 597.757812 266.558594 600.457031 265.210938 C 602.105469 264.460938 603.082031 264.160156 604.503906 263.9375 C 606.078125 263.710938 607.878906 263.710938 609.453125 263.785156 C 611.027344 263.863281 612 263.9375 614.175781 264.460938 C 619.648438 265.960938 633.441406 271.882812 642.136719 275.632812 C 649.933594 278.929688 659.527344 283.128906 664.027344 285.601562 C 666.199219 286.800781 666.949219 287.773438 668.597656 288.601562 C 670.398438 289.5 671.671875 290.25 674.445312 290.773438 C 680.292969 291.898438 696.183594 293.546875 703.007812 291.375 C 707.429688 290.023438 709.078125 287.773438 712.902344 284.328125 C 719.648438 278.328125 731.042969 264.6875 738.164062 256.289062 C 743.710938 249.769531 747.984375 244.894531 752.484375 238.523438 C 757.207031 231.703125 761.179688 222.03125 765.527344 216.484375 C 768.601562 212.585938 771.523438 211.386719 774.746094 207.488281 C 779.621094 201.640625 786.816406 187.023438 790.5625 184.175781 C 791.914062 183.125 792.664062 183.199219 793.9375 182.976562 C 795.660156 182.675781 797.6875 182.375 799.859375 182.675781 C 802.558594 182.902344 805.632812 184.550781 808.78125 185.074219 C 812.003906 185.675781 816.875 185.375 819.050781 185.824219 C 820.101562 186.050781 820.324219 186.125 821.300781 186.722656 C 823.921875 188.222656 829.695312 193.921875 834.117188 196.996094 C 838.390625 199.992188 844.089844 202.617188 847.386719 205.089844 C 849.558594 206.738281 849.933594 207.789062 852.484375 209.664062 C 858.257812 213.9375 876.171875 223.304688 882.695312 227.878906 C 886.066406 230.203125 887.941406 231.402344 889.964844 233.578125 C 892.066406 235.75 893.5625 238.222656 895.136719 240.847656 C 896.789062 243.847656 898.0625 248.34375 899.636719 250.742188 C 900.683594 252.390625 901.734375 253.140625 902.859375 254.339844 C 904.058594 255.617188 904.957031 256.816406 906.683594 258.164062 C 909.230469 260.339844 913.429688 264.160156 917.402344 265.359375 C 921.375 266.636719 926.847656 265.0625 930.445312 265.585938 C 932.996094 265.886719 934.195312 266.785156 937.042969 267.160156 C 942.140625 267.910156 952.558594 266.1875 958.632812 268.132812 C 963.804688 269.707031 966.953125 273.832031 971.75 276.230469 C 977 278.929688 984.871094 281.101562 988.84375 283.128906 C 991.089844 284.328125 991.914062 285.300781 994.015625 286.351562 C 996.789062 287.773438 1001.136719 289.574219 1004.210938 290.546875 C 1006.609375 291.296875 1008.332031 291.074219 1010.882812 291.972656 C 1014.855469 293.324219 1021.976562 296.621094 1025.347656 298.71875 C 1027.449219 299.996094 1029.398438 301.34375 1030.070312 302.394531 C 1030.371094 302.84375 1030.445312 303.21875 1030.445312 303.667969 C 1030.296875 304.191406 1029.847656 305.015625 1029.398438 305.316406 C 1028.871094 305.617188 1027.898438 305.691406 1027.449219 305.390625 C 1026.847656 305.089844 1026.175781 303.816406 1026.25 303.144531 C 1026.324219 302.617188 1026.921875 301.867188 1027.449219 301.644531 C 1027.972656 301.417969 1028.949219 301.417969 1029.398438 301.792969 C 1029.996094 302.167969 1030.445312 303.441406 1030.296875 304.117188 C 1030.222656 304.71875 1029.472656 305.316406 1028.949219 305.542969 C 1028.574219 305.691406 1028.125 305.691406 1027.597656 305.542969 C 1026.625 305.167969 1025.574219 303.59375 1023.851562 302.542969 C 1020.777344 300.667969 1014.105469 297.519531 1010.355469 296.320312 C 1007.734375 295.570312 1005.933594 295.871094 1003.609375 295.195312 C 1000.910156 294.523438 997.835938 293.324219 995.0625 292.046875 C 992.289062 290.699219 989.816406 288.601562 986.894531 287.25 C 983.96875 285.824219 981.269531 285.527344 977.597656 283.878906 C 972.050781 281.328125 963.804688 274.207031 957.058594 272.40625 C 951.210938 270.832031 944.613281 272.558594 939.742188 272.03125 C 936.144531 271.65625 933.667969 270.535156 930.445312 270.234375 C 926.921875 269.933594 922.5 270.535156 919.574219 270.234375 C 917.628906 269.933594 916.503906 269.859375 914.628906 269.035156 C 911.554688 267.683594 906.757812 264.160156 903.535156 261.464844 C 900.609375 258.914062 897.835938 256.367188 895.8125 253.292969 C 893.789062 250.21875 892.964844 246.019531 891.390625 243.097656 C 890.039062 240.625 888.691406 238.449219 887.117188 236.574219 C 885.691406 234.925781 884.867188 234.101562 882.46875 232.300781 C 876.847656 228.179688 858.480469 219.035156 851.433594 214.085938 C 847.460938 211.3125 845.8125 209.214844 842.589844 206.964844 C 839.140625 204.492188 834.566406 202.542969 831.34375 200.066406 C 828.496094 197.96875 826.320312 195.121094 823.921875 193.394531 C 821.972656 191.972656 820.472656 190.847656 818.226562 190.171875 C 815.75 189.421875 812.453125 190.097656 809.453125 189.574219 C 806.382812 189.046875 802.933594 187.25 800.007812 186.949219 C 797.535156 186.722656 795.585938 186.199219 793.1875 187.625 C 788.390625 190.472656 782.394531 204.941406 777.671875 210.710938 C 774.445312 214.535156 771.671875 215.660156 768.601562 219.558594 C 764.101562 225.332031 757.804688 239.421875 754.65625 243.023438 C 753.457031 244.296875 752.933594 244.070312 751.734375 245.269531 C 749.183594 247.820312 745.285156 254.117188 741.164062 259.214844 C 736.066406 265.585938 728.121094 274.730469 723.023438 280.277344 C 719.574219 284.101562 717.101562 287.101562 713.953125 289.648438 C 711.179688 291.898438 709.230469 293.773438 705.332031 294.972656 C 698.957031 296.84375 683.816406 296.019531 678.269531 295.644531 C 675.796875 295.570312 674.820312 295.421875 673.023438 294.898438 C 670.847656 294.371094 669.125 293.621094 666.199219 292.273438 C 660.578125 289.722656 650.609375 283.425781 642.136719 279.605469 C 633.140625 275.554688 620.847656 269.933594 613.574219 268.734375 C 609.300781 267.984375 606.453125 267.984375 603.082031 269.109375 C 599.480469 270.234375 596.632812 274.058594 592.8125 275.855469 C 588.613281 277.878906 583.066406 279.753906 578.792969 280.277344 C 575.417969 280.652344 572.34375 280.804688 569.570312 279.605469 C 566.648438 278.40625 565.300781 275.105469 561.925781 272.855469 C 556.527344 269.257812 545.207031 265.210938 539.210938 261.761719 C 534.863281 259.289062 531.191406 256.214844 528.566406 254.640625 C 527.066406 253.742188 526.394531 253.140625 525.042969 252.765625 C 523.246094 252.316406 521.070312 251.71875 518.671875 252.542969 C 514.398438 254.042969 507.128906 261.238281 502.855469 265.960938 C 499.257812 270.082031 497.90625 274.65625 494.234375 278.855469 C 489.660156 284.101562 482.015625 290.625 476.691406 294.371094 C 472.792969 297.144531 468.820312 299.167969 465.824219 300.519531 C 463.949219 301.34375 463.199219 301.792969 460.949219 302.167969 C 456.675781 302.84375 445.882812 302.769531 441.835938 302.167969 C 439.808594 301.941406 439.210938 302.019531 437.488281 300.96875 C 433.4375 298.570312 424.96875 288.75 420.84375 283.203125 C 417.847656 279.003906 415.972656 273.757812 414.171875 271.359375 C 413.273438 270.160156 412.75 270.308594 411.847656 268.960938 C 409.148438 265.0625 404.277344 251.269531 399.855469 242.945312 C 395.582031 234.925781 390.558594 226.378906 385.910156 219.933594 C 382.238281 214.835938 378.339844 210.488281 374.96875 207.039062 C 372.492188 204.414062 370.09375 201.941406 367.921875 200.59375 C 366.496094 199.769531 365.523438 198.867188 363.949219 199.09375 C 361.472656 199.46875 358.101562 203.140625 354.726562 206.140625 C 350.003906 210.414062 345.355469 217.234375 338.757812 222.78125 C 330.363281 229.976562 314.246094 239.199219 307.5 244.445312 C 303.976562 247.144531 303.152344 248.496094 299.929688 250.96875 C 294.980469 254.714844 285.683594 260.789062 279.914062 264.238281 C 275.789062 266.859375 272.867188 267.761719 268.820312 270.535156 C 263.195312 274.355469 253.902344 284.101562 249.929688 286.050781 C 248.355469 286.800781 248.054688 286.652344 246.328125 286.800781 C 241.757812 287.175781 227.589844 287.550781 221.742188 286.351562 C 218.292969 285.675781 216.269531 284.550781 213.871094 283.128906 C 211.472656 281.703125 209.148438 278.929688 207.199219 277.804688 C 205.847656 277.054688 204.800781 277.128906 203.527344 276.378906 C 202.027344 275.554688 200.902344 273.90625 199.027344 272.707031 C 196.253906 270.910156 191.230469 269.109375 188.15625 267.308594 C 185.757812 265.886719 184.785156 263.863281 181.9375 262.886719 C 177.214844 261.386719 167.394531 260.714844 161.097656 262.585938 C 154.722656 264.460938 147.679688 272.332031 143.855469 274.28125 C 142.054688 275.257812 141.304688 275.03125 139.730469 275.855469 C 137.183594 277.128906 133.359375 279.527344 130.511719 281.851562 C 127.664062 284.101562 125.265625 287.25 122.488281 289.574219 C 119.714844 291.824219 116.792969 293.171875 113.871094 295.644531 C 110.421875 298.570312 107.199219 301.867188 103.300781 306.140625 C 97.902344 312.136719 91.679688 321.660156 85.007812 328.855469 C 78.113281 336.277344 69.789062 343.996094 62.371094 350.070312 C 55.921875 355.316406 47.902344 361.164062 43.328125 363.414062 C 41.003906 364.613281 40.105469 364.3125 37.78125 365.289062 C 33.433594 367.160156 23.3125 373.234375 19.339844 374.882812 C 17.464844 375.632812 16.566406 375.480469 15.066406 376.230469 C 12.96875 377.28125 10.417969 379.832031 8.019531 381.179688 C 5.773438 382.453125 2.699219 384.402344 1.125 384.179688 C 0.226562 383.953125 -0.75 382.980469 -0.824219 382.304688 C -0.898438 381.703125 0.300781 380.355469 0.300781 380.355469 "/></clipPath></defs><g id="cc79003be5"><g clip-rule="nonzero" clip-path="url(#d3b2d32659)"><g clip-rule="nonzero" clip-path="url(#b4ceea53a5)"><path style=" stroke:none;fill-rule:nonzero;fill:#fffdfd;fill-opacity:1;" d="M -3.824219 179.679688 L 1033.671875 179.679688 L 1033.671875 387.175781 L -3.824219 387.175781 Z M -3.824219 179.679688 "/></g></g></g></svg>