<svg id="visual" viewBox="0 0 900 600" width="900" height="600" xmlns="http://www.w3.org/2000/svg" xmlns:xlink="http://www.w3.org/1999/xlink" version="1.1"><rect x="0" y="0" width="900" height="600" fill="#002233"></rect><path d="M0 408L10 402.5C20 397 40 386 60 393.3C80 400.7 100 426.3 120 438C140 449.7 160 447.3 180 457.2C200 467 220 489 240 487.5C260 486 280 461 300 445.5C320 430 340 424 360 413.8C380 403.7 400 389.3 420 383.2C440 377 460 379 480 391.2C500 403.3 520 425.7 540 438.8C560 452 580 456 600 466.5C620 477 640 494 660 483.3C680 472.7 700 434.3 720 435.3C740 436.3 760 476.7 780 493.8C800 511 820 505 840 504C860 503 880 507 890 509L900 511L900 601L890 601C880 601 860 601 840 601C820 601 800 601 780 601C760 601 740 601 720 601C700 601 680 601 660 601C640 601 620 601 600 601C580 601 560 601 540 601C520 601 500 601 480 601C460 601 440 601 420 601C400 601 380 601 360 601C340 601 320 601 300 601C280 601 260 601 240 601C220 601 200 601 180 601C160 601 140 601 120 601C100 601 80 601 60 601C40 601 20 601 10 601L0 601Z" fill="#0066FF" stroke-linecap="round" stroke-linejoin="miter"></path></svg>