<svg id="visual" viewBox="0 0 960 540" width="960" height="540" xmlns="http://www.w3.org/2000/svg" xmlns:xlink="http://www.w3.org/1999/xlink" version="1.1"><rect x="0" y="0" width="960" height="540" fill="#002233"></rect><path d="M0 367L10.7 362C21.3 357 42.7 347 64 353.7C85.3 360.3 106.7 383.7 128 394.3C149.3 405 170.7 403 192 411.8C213.3 420.7 234.7 440.3 256 438.8C277.3 437.3 298.7 414.7 320 400.7C341.3 386.7 362.7 381.3 384 372.2C405.3 363 426.7 350 448 344.5C469.3 339 490.7 341 512 352C533.3 363 554.7 383 576 394.8C597.3 406.7 618.7 410.3 640 419.8C661.3 429.3 682.7 444.7 704 435.2C725.3 425.7 746.7 391.3 768 392.2C789.3 393 810.7 429 832 444.3C853.3 459.7 874.7 454.3 896 453.5C917.3 452.7 938.7 456.3 949.3 458.2L960 460L960 541L949.3 541C938.7 541 917.3 541 896 541C874.7 541 853.3 541 832 541C810.7 541 789.3 541 768 541C746.7 541 725.3 541 704 541C682.7 541 661.3 541 640 541C618.7 541 597.3 541 576 541C554.7 541 533.3 541 512 541C490.7 541 469.3 541 448 541C426.7 541 405.3 541 384 541C362.7 541 341.3 541 320 541C298.7 541 277.3 541 256 541C234.7 541 213.3 541 192 541C170.7 541 149.3 541 128 541C106.7 541 85.3 541 64 541C42.7 541 21.3 541 10.7 541L0 541Z" fill="#0066FF" stroke-linecap="round" stroke-linejoin="miter"></path></svg>